<svg viewBox="0 0 48 48" xmlns="http://www.w3.org/2000/svg"><path fill="#e00000" opacity=".94" d="M18.46 1.69c10.49-2.9 22.47 3.07 26.36 13.27.18 2.01-2.7 2.05-3.05.26C38.52 7.68 30.03 3.02 21.94 4c-6.8.63-12.98 5.18-15.78 11.37-.33 1.85-3.12 1.71-3.03-.27C5.8 8.57 11.58 3.38 18.46 1.69z"/><path fill="#e00" d="M12.75 18.39c1.11-3.73 4.78-6.18 8.41-7.18 5.38-1.31 11.4 1.3 14.02 6.25-.94.04-2.8.13-3.73.17-3.92-4.82-11.83-4.24-15.36.73-.83.01-2.5.02-3.34.03z"/><path fill="#a2090f" opacity=".8" d="M12.75 18.39c.84-.01 2.51-.02 3.34-.03-.68 1.84-1.35 5.25-4.05 4.39-1.25-1.32-.16-2.94.26-4.34l.45-.02z"/><path fill="#a30c13" opacity=".83" d="M31.45 17.63c.93-.04 2.79-.13 3.73-.17.86 1.64 2.98 5.74-.16 6.17-2.37-.86-1.95-4.27-3.57-6z"/><path fill="#e00" d="M16.88 26.43c1.4-6.11 10.69-7.26 13.64-1.77-1.02.53-2.09.86-3.23 1.01-2.14-2.17-6.33-1.39-7.35 1.5-.98-.39-2-.64-3.06-.74z"/><path fill="#980e16" opacity=".8" d="M30.52 24.66c1.65 1.41 1.53 5.7-1.49 4.55-.67-1.13-1.2-2.34-1.74-3.54 1.14-.15 2.21-.48 3.23-1.01z"/><path fill="#740a0f" opacity=".61" d="M16.55 26.51l.33-.08c1.06.1 2.08.35 3.06.74.44 2.84-4.67 2.2-3.39-.66z"/><path fill="#e00" d="M21.37 30.82c.05-1.1.71-2 1.44-2.77-1.7 2.62 2.18 4.74 3.57 1.97.33 1.16-.68 2.09-1.37 2.87l-2.12.04c-.58-.65-1.09-1.35-1.52-2.11z"/><path fill="#b78292" opacity=".91" d="M22.81 28.05c1.59-.53 3.26.25 3.57 1.97-1.39 2.77-5.27.65-3.57-1.97z"/><path fill="#1e1e1e" opacity=".91" d="M22.89 32.93l2.12-.04c.65 1.48 1.4 2.9 2.07 4.37-1.04-.63-2.04-1.36-3.12-1.91-.54.07-1.62.2-2.16.27.37-.9.73-1.79 1.09-2.69z"/><path fill="#515151" d="M21.8 35.62c.54-.07 1.62-.2 2.16-.27 1.08.55 2.08 1.28 3.12 1.91.56 1.13 1.14 2.25 1.73 3.37-.2.5-.61 1.52-.82 2.02-2.35-.3-4.7-.66-7.04-1.05-.23-.52-.69-1.55-.92-2.07.59-1.31 1.21-2.59 1.77-3.91z"/><path fill="#010101" opacity=".36" d="M34.8 38.45c1.76-.5 4.24-.59 5.02 1.48-.25 1.75-2.29 1.96-3.53 2.74-1.89.81-3.37 2.28-5.07 3.39-.28-1.34-.9-2.56-1.5-3.78 1.73-1.23 3.37-2.58 5.08-3.83z"/><path fill="#666" opacity=".95" d="M20.03 39.53c.23.52.69 1.55.92 2.07-.49 1.13-.94 2.28-1.35 3.45 2.73 1.65 6.55 1.38 9.45.2-.27-.65-.79-1.95-1.06-2.6.21-.5.62-1.52.82-2.02.23.41.68 1.23.91 1.65.6 1.22 1.22 2.44 1.5 3.78-1.72 1.16-3.75 1.6-5.76 1.94h-1.9c-2.14-.34-4.35-.69-6.15-1.97.42-2.32 1.75-4.34 2.62-6.5z"/><path fill="#3d3d3d" d="M20.95 41.6c2.34.39 4.69.75 7.04 1.05.27.65.79 1.95 1.06 2.6-2.9 1.18-6.72 1.45-9.45-.2.41-1.17.86-2.32 1.35-3.45z"/></svg>