<svg xmlns="http://www.w3.org/2000/svg" height="446.513" width="447.467" viewBox="0 0 71.595 71.442"><path fill="#5092dc" d="M26.942 4.112h40.42v29.036h-40.42z"/><path d="M66.455.64h-38.6c-2.4 0-4.4 2-4.4 4.4v27.3c0 2.4 2 4.4 4.4 4.4h12.6c.6 0 1 .4 1 1v1.6c0 .2 0 .3-.1.5l-3.7 6.3c-.4.7.1 1.5.9 1.5h18.5c.8 0 1.3-.8.9-1.5l-3.6-6.4c-.1-.2-.1-.3-.1-.5v-1.6c0-.6.4-1 1-1h11.3c2.4 0 4.4-2 4.4-4.4V5.04c-.1-2.4-2.1-4.4-4.5-4.4zm.9 31.6c0 .5-.4.9-.9.9h-38.6c-.5 0-.9-.4-.9-.9V5.04c0-.5.4-.9.9-.9h38.6c.5 0 .9.4.9.9z" fill="#fff" stroke="#a8a8a8" stroke-width="1.28"/><g transform="translate(.34 23.302)"><rect y="3.99" x="3.805" height="29.01" width="40.382" ry=".025" fill="#5092dc"/><path d="M43.3.5H4.7C2.3.5.3 2.5.3 4.9v27.3c0 2.4 2 4.4 4.4 4.4h12.6c.6 0 1 .4 1 1v1.6c0 .2 0 .3-.1.5L14.5 46c-.4.7.1 1.5.9 1.5h18.5c.8 0 1.3-.8.9-1.5l-3.6-6.4c-.1-.2-.1-.3-.1-.5v-1.6c0-.6.4-1 1-1h11.3c2.4 0 4.4-2 4.4-4.4V4.9C47.7 2.5 45.7.5 43.3.5zm.9 31.6c0 .5-.4.9-.9.9H4.7c-.5 0-.9-.4-.9-.9V4.9c0-.5.4-.9.9-.9h38.6c.5 0 .9.4.9.9z" fill="#fff" stroke="#a8a8a8" stroke-width="1.28"/></g></svg>