<?xml version="1.0" encoding="UTF-8" ?>
<svg xmlns="http://www.w3.org/2000/svg" version="1.1" height="68" width="68">
<g>
<path fill="#008800" opacity="1.00" d=" M 2.16 23.99 C 5.40 12.11 16.39 3.71 28.02 0.95 C 39.21 -1.65 50.93 3.21 58.94 10.98 C 64.77 16.61 67.69 24.65 68.00 32.64 L 68.00 36.15 C 67.54 43.87 64.74 51.61 59.14 57.10 C 51.21 64.92 39.57 69.84 28.38 67.42 C 20.48 65.64 13.08 61.29 7.83 55.10 C 0.71 46.60 -0.64 34.45 2.16 23.99 M 30.49 5.62 C 19.91 7.55 9.75 15.11 6.93 25.83 C 4.52 35.11 6.04 45.97 12.86 53.10 C 18.12 58.52 25.28 62.41 32.90 62.92 C 41.60 63.42 50.07 59.19 56.01 53.02 C 62.01 46.72 63.84 37.43 62.53 29.03 C 60.58 14.30 44.91 3.54 30.49 5.62 Z" />
<path fill="#008800" opacity="1.00" d=" M 30.35 19.54 C 39.33 16.65 49.99 24.38 49.49 33.97 C 50.06 42.10 42.76 48.96 34.94 49.36 C 26.76 49.62 18.75 42.49 19.31 34.04 C 18.97 27.29 24.05 21.37 30.35 19.54 M 31.45 24.73 C 23.81 26.64 22.04 38.15 28.78 42.21 C 34.44 46.71 43.94 42.30 44.17 35.09 C 45.26 28.35 37.77 22.41 31.45 24.73 Z" />
</g>
</svg>
