<svg viewBox="0 0 225 225" xmlns="http://www.w3.org/2000/svg"><defs/><path fill="#e0dfde" d="M114.17 16.41c14.09 8.07 28.91 16.78 43.12 25.29 3.34 2.04.96 5.73-.41 8.21-2.04 5.6-7.14 10.06-7.96 16.02 16.93.33 33.88-.26 50.81.24.71 1.56 1.72 3.08 1.95 4.81-1.65 16.2.04 32.55-.88 48.77-5.48 6.08-16.25-.78-22.69 3.35 6.35 15.23 17.58 28.45 22.93 43.9-10.43 9.02-24.3 15.13-36.26 22.81-3.11 1.38-5.8 5.17-9.57 4.04-5.62-5.06-7.63-14.04-13.09-18.7-8.6 13.32-15.51 27.7-23.78 41.18-2.14 2.5-6.16-.3-8.34-1.36-12.9-7.84-26.19-15.1-38.89-23.23-.35-8.69 7.92-14.59 10.05-22.66-17.6-1.37-35.67 2.15-53.05-1.36-.05-17.48-.44-35.01.11-52.46 5.45-7.27 15.72.92 22.63-3.38-6.98-13.93-15.24-27.22-22.84-40.87 2.27-6.73 11.29-7.47 16.1-11.81 10.23-5.37 19.61-13.85 30.86-16.22 4.28 3.47 5.51 10.28 9.26 14.73.65 1.42 1.04 4.72 3.07 2.61 7.04-11.14 13.07-22.93 19.53-34.43 2.32-3.1 3.32-8.07 7.34-9.48m-.97 5.68c-9.17 15.81-17.85 31.94-27.77 47.3-3.71-7.18-8.33-13.87-11.7-21.24-4.41-.68-8.15 2.75-11.82 4.74-9.37 6.4-21.04 10.52-28.93 18.1 7.18 15.76 18.4 29.83 25.12 45.92-7.87.83-17.95-1.35-24.09 1.1-.25.25-.76.73-1.01.97l-.95.07c.45 14.01-1.32 30.55.95 42.95.25.25.76.75 1.01 1l-.03.99.05.96c17.2.33 34.42-.34 51.61.27.19.48.56 1.44.74 1.92-3.9 5.82-6.83 12.23-10.56 18.15-1.85.32-1.45 5.45.94 4.52 11.85 6.81 23.54 13.94 35.55 20.46.84 2.15 5.71.46 4.44-2.07 7.43-12.83 15.08-25.53 22.21-38.53 2.23 1.67 4.62 2.87 6.38-.11 3.64 5.58 6.53 11.61 9.81 17.4 5.02.55 8.88-3.63 13.17-5.63 8.57-5.77 18.19-9.74 26.66-15.66 1.86.47 1.89-3.81.04-3.41-7.24-13.19-15.13-26-22.46-39.14 2.3-1.35 5.43-4.78.56-4.31 4.24-3.31 17.59 1.67 21.82-1.82 4.25-.8.66-7.71 2.1-9.99-1-11.81 1.78-24.87-1.28-35.99-16.01-2.25-37.83-.58-56.06-.81 4.21-6.71 7.38-14.02 11.92-20.54 1.62-2.27 2.86-6.74-.59-7.71-13.21-5.24-24.26-16.54-37.83-19.86z"/><path fill="#623b69" d="M113.2 22.09c13.57 3.32 24.62 14.62 37.83 19.86 3.45.97 2.21 5.44.59 7.71-4.54 6.52-7.71 13.83-11.92 20.54-1.93-.11-3.86-.19-5.78-.24.85-1.2 1.67-2.42 2.46-3.66 2.88-4.58 5.13-9.53 7.93-14.16 8.04-6.58-1.59-9.09-6.87-12.09-7.4-3.83-14.29-9.79-22.23-11.97-7.7 12.77-14.89 25.99-22.44 38.91-3.67 6-7.14 12.14-10.4 18.37-.45 1.2-.98 3.4.54 4.04 3.87 2.47 8.07 4.39 11.94 6.86 5.46 3.25 10.77 7.23 17.03 8.81 1.57-2.6.91-7.62 5.08-7.28.03 4.04.02 8.09-.01 12.14-1.12 5.18-7.54-1.75-6.82 1.97-2.61-2.57-5.78-4.43-8.98-6.15-7.75-5.05-15.93-9.32-23.91-13.96-2.65-1.82-1.64-4.78-.41-7.12 2.3-3.66 4.73-7.27 6.59-11.18.72-1.34 1.38-2.71 2.01-4.1 9.92-15.36 18.6-31.49 27.77-47.3z"/><path fill="#ab86aa" d="M115.21 28.08c7.94 2.18 14.83 8.14 22.23 11.97-9.38 10.22-23.95 13.9-34.64 22.76-3.11 1.64-6.19 6.45-10.03 4.18 7.55-12.92 14.74-26.14 22.44-38.91z"/><path fill="#9c789f" d="M137.44 40.05c5.28 3 14.91 5.51 6.87 12.09-9.29 4.89-17.41 12.61-28.64 12.53-4.28.03-4.17 5.15-6.14 7.83-9.54 4.47-17.79 11.48-26.62 16.9-1.52-.64-.99-2.84-.54-4.04 3.26-6.23 6.73-12.37 10.4-18.37 3.84 2.27 6.92-2.54 10.03-4.18 10.69-8.86 25.26-12.54 34.64-22.76z"/><path fill="#9e1658" d="M61.91 52.89c3.67-1.99 7.41-5.42 11.82-4.74 3.37 7.37 7.99 14.06 11.7 21.24-.63 1.39-1.29 2.76-2.01 4.1-.52-.4-1.57-1.2-2.09-1.6-3.07-5.94-6.41-11.74-9.68-17.56-.42-1.23-1.11-1.47-2.08-.71-5.64 4.07-12 6.88-17.9 10.49-4.29 2.74-9.33 4.67-12.67 8.6 3.16 6.37 6.67 12.63 10.71 18.48 2.64 4.68 5.05 9.49 7.98 13.99 4.63 8.89 9.5 17.75 15.66 25.68 5.82.65 10.23-3.76 14.92-6.47 2.66-1.7 5.31-3.42 7.98-5.11 2.79-1.34 5.7-2.48 8.34-4.11 1.62-3.61-1.76-6.57-3.44-9.42 3.2 1.72 6.37 3.58 8.98 6.15.39 1.9.55 3.84.86 5.75-3.25.16-5.84 2.11-8.3 4.02-4.99 2.86-10.13 5.43-15.19 8.16-4.69 2.46-8.8 5.97-13.63 8.15-3.9 1.07-4.56-4.22-6.67-6.31-2.52-3.11-2.53-9.59-7.34-9.91 5.3-.84-2.98-6.44-4.86-3.75-7-.12-13.99-.02-20.99 0 6.14-2.45 16.22-.27 24.09-1.1-6.72-16.09-17.94-30.16-25.12-45.92 7.89-7.58 19.56-11.7 28.93-18.1z"/><path fill="#906c93" d="M115.67 64.67c11.23.08 19.35-7.64 28.64-12.53-2.8 4.63-5.05 9.58-7.93 14.16-6.69 1.09-15.95-2.23-21.66 2.43-2.46 5.58-1.58 12.28-4.04 17.98-5.14 3.41-10.44 6.56-15.83 9.55-3.87-2.47-8.07-4.39-11.94-6.86 8.83-5.42 17.08-12.43 26.62-16.9 1.97-2.68 1.86-7.8 6.14-7.83z"/><path fill="#e45f99" d="M69.57 53.62c.97-.76 1.66-.52 2.08.71 3.27 5.82 6.61 11.62 9.68 17.56-4.23 10.1-14.19 4.77-19.99-.24-3.13-2.58-7.76-3.69-9.67-7.54 5.9-3.61 12.26-6.42 17.9-10.49z"/><path fill="#d8488b" d="M39 72.71c3.34-3.93 8.38-5.86 12.67-8.6 1.91 3.85 6.54 4.96 9.67 7.54 5.8 5.01 15.76 10.34 19.99.24.52.4 1.57 1.2 2.09 1.6-1.86 3.91-4.29 7.52-6.59 11.18-.41.14-1.24.42-1.65.57-2.84.79-4.76 3.1-7.14 4.69-9.5-6.05-19.56-11.18-29.04-17.22z"/><path fill="#7f5c84" d="M114.72 68.73c5.71-4.66 14.97-1.34 21.66-2.43-.79 1.24-1.61 2.46-2.46 3.66-5.2 1.32-12.96-2.68-16.73 2.38-.43 8.47-.12 16.96-.23 25.45-4.17-.34-3.51 4.68-5.08 7.28-6.26-1.58-11.57-5.56-17.03-8.81 5.39-2.99 10.69-6.14 15.83-9.55 2.46-5.7 1.58-12.4 4.04-17.98z"/><path fill="#264d87" d="M117.19 72.34c3.77-5.06 11.53-1.06 16.73-2.38 1.92.05 3.85.13 5.78.24 18.62 1.73 37.38.37 56.06.81 3.06 11.12.28 24.18 1.28 35.99-1.44 2.28 2.15 9.19-2.1 9.99-8.48.17-17-.44-25.46.41-1.51-1.95-2.49-4.22-3.63-6.38 7.89.86 15.73 3.09 23.73 1.64 3.61-.22 2.48-3.94 2.43-6.74.02-2.66.01-5.32-.02-7.98 0-3.02.01-6.03-.02-9.05.01-1.75.02-5.27.03-7.02-.02-1.7-.05-5.1-.07-6.8-23.28-.12-46.56-.15-69.83.02-.05 1.75-.15 5.26-.19 7.01.01 1.73.02 5.19.03 6.92 0 2.99.03 5.99.07 8.99-.03 3.38-.06 6.78-.02 10.16-1.45 4.91 3.23 3.41 6.36 3.91-2.74 1.86-5.57 3.56-8.39 5.29-3.17-1.08-3.08-4.7-3.01-7.44.03-4.05.04-8.1.01-12.14.11-8.49-.2-16.98.23-25.45z"/><path fill="#687fa3" d="M139.7 70.2c18.23.23 40.05-1.44 56.06.81-18.68-.44-37.44.92-56.06-.81z"/><path fill="#d0337d" d="M39 72.71c9.48 6.04 19.54 11.17 29.04 17.22 2.38-1.59 4.3-3.9 7.14-4.69-4.63 2.86-4.45 10.22 1.36 11.37 8.6 7.2 21.87 8.9 28.05 18.56-2.64 1.63-5.55 2.77-8.34 4.11-15.49-9.41-31.27-18.32-46.54-28.09-4.04-5.85-7.55-12.11-10.71-18.48z"/><path fill="#81a8d0" d="M122.1 75.09c23.27-.17 46.55-.14 69.83-.02.02 1.7.05 5.1.07 6.8-7.22 4.27-16.17-.07-24 1.07-15.32-1.52-31.07 3.56-46.09-.84.04-1.75.14-5.26.19-7.01z"/><path fill="#729ac8" d="M121.91 82.1c15.02 4.4 30.77-.68 46.09.84 7.83-1.14 16.78 3.2 24-1.07-.01 1.75-.02 5.27-.03 7.02-15.55 4.05-32.51.03-48.57 1.45-6.99-1.73-14.92 2.03-21.46-1.32-.01-1.73-.02-5.19-.03-6.92z"/><path fill="#bc3777" d="M75.18 85.24c.41-.15 1.24-.43 1.65-.57-1.23 2.34-2.24 5.3.41 7.12 7.98 4.64 16.16 8.91 23.91 13.96 1.68 2.85 5.06 5.81 3.44 9.42-6.18-9.66-19.45-11.36-28.05-18.56-5.81-1.15-5.99-8.51-1.36-11.37z"/><path fill="#608abc" d="M121.94 89.02c6.54 3.35 14.47-.41 21.46 1.32 16.06-1.42 33.02 2.6 48.57-1.45.03 3.02.02 6.03.02 9.05-7.91.98-15.9 1.47-23.87.99-4.77-1.59-7.86-8.17-13.74-5.54-9.6 5.64-21.58 7.29-32.37 4.62-.04-3-.07-6-.07-8.99z"/><path fill="#ca2273" d="M49.71 91.19c15.27 9.77 31.05 18.68 46.54 28.09-2.67 1.69-5.32 3.41-7.98 5.11-11.59-3.92-22.78-9.44-30.58-19.21-2.93-4.5-5.34-9.31-7.98-13.99z"/><path fill="#4d79af" d="M154.38 93.39c5.88-2.63 8.97 3.95 13.74 5.54 7.97.48 15.96-.01 23.87-.99.03 2.66.04 5.32.02 7.98-7.21 1.41-14.51-.34-21.74.83-3.49-2.28-6.16-5.93-10.42-6.8-3.55-5.25-8.59-1.09-12.6 1.19-8.83.39-16.43 6.24-25.26 7.03-.04-3.38-.01-6.78.02-10.16 10.79 2.67 22.77 1.02 32.37-4.62z"/><path fill="#487a15" d="M147.25 101.14c4.01-2.28 9.05-6.44 12.6-1.19 1.63 3.87 3.89 7.44 6 11.07 1.14 2.16 2.12 4.43 3.63 6.38.95 1.95 1.97 3.86 3.08 5.72 7.33 13.14 15.22 25.95 22.46 39.14-.07 1.13-.08 2.27-.04 3.41-8.47 5.92-18.09 9.89-26.66 15.66-4.29 2-8.15 6.18-13.17 5.63-3.28-5.79-6.17-11.82-9.81-17.4-.92-1.69-1.88-3.36-2.84-5.03.72-1.69 1.48-3.38 2.37-4.99 4.8 6.73 7.69 14.6 12.37 21.4 5.19-.29 9.21-4.57 13.79-6.64 4.93-2.79 9.73-5.84 14.84-8.29 7.32-2.01 1.26-8.02-.96-11.93-2.97-4.47-4.67-9.67-7.84-14.02-7.11-12.33-14.4-24.58-21.29-37.02-8.76 1.96-15.78 8.89-23.85 12.82-2.46 1.35-4.76 2.98-7.27 4.25-3.38-.22-.43 3.64.04 5.29-2.86-1.48-5.63-3.17-8.03-5.34 1.11-.88 2.16-1.83 3.29-2.69 2.82-1.73 5.65-3.43 8.39-5.29 6.56-3.17 12.8-6.97 18.9-10.94z"/><path fill="#3a68a2" d="M159.85 99.95c4.26.87 6.93 4.52 10.42 6.8 7.23-1.17 14.53.58 21.74-.83.05 2.8 1.18 6.52-2.43 6.74-8 1.45-15.84-.78-23.73-1.64-2.11-3.63-4.37-7.2-6-11.07z"/><path fill="#3e6799" d="M121.99 108.17c8.83-.79 16.43-6.64 25.26-7.03-6.1 3.97-12.34 7.77-18.9 10.94-3.13-.5-7.81 1-6.36-3.91z"/><path fill="#a7c766" d="M131.93 115.86c8.07-3.93 15.09-10.86 23.85-12.82 6.89 12.44 14.18 24.69 21.29 37.02-2.48 6.87-10.39-1.3-14.09-3.02-4.39-2.61-9.46-4.12-12.5-8.48-7.98.02-11.01-9.35-19.06-9.15-2.75-.05.04-2.32.51-3.55z"/><path fill="#bf1167" d="M57.69 105.18c7.8 9.77 18.99 15.29 30.58 19.21-4.69 2.71-9.1 7.12-14.92 6.47-6.16-7.93-11.03-16.79-15.66-25.68z"/><path fill="#928b8e" d="M110.13 111.9c-.72-3.72 5.7 3.21 6.82-1.97-.07 2.74-.16 6.36 3.01 7.44-1.13.86-2.18 1.81-3.29 2.69-1.44.28-2.86.59-4.28.95-.45-1.13-.91-2.25-1.4-3.36-.31-1.91-.47-3.85-.86-5.75z"/><path fill="#99bb56" d="M124.66 120.11c2.51-1.27 4.81-2.9 7.27-4.25-.47 1.23-3.26 3.5-.51 3.55 8.05-.2 11.08 9.17 19.06 9.15 3.04 4.36 8.11 5.87 12.5 8.48 3.7 1.72 11.61 9.89 14.09 3.02 3.17 4.35 4.87 9.55 7.84 14.02 2.22 3.91 8.28 9.92.96 11.93-9.36-1.89-16.69-9.42-25.35-13.48-5.57-2.18 1.6-8.33-2.32-11.72-10.98-7.19-23.06-12.75-33.54-20.7z"/><path fill="#b2bfc6" d="M169.48 117.4c8.46-.85 16.98-.24 25.46-.41-4.23 3.49-17.58-1.49-21.82 1.82 4.87-.47 1.74 2.96-.56 4.31-1.11-1.86-2.13-3.77-3.08-5.72z"/><path fill="#a62128" d="M33 118.98c.25-.24.76-.72 1.01-.97-.01 15-.02 29.99 0 44.99-.25-.25-.76-.75-1.01-1v-43.02z"/><path fill="#a40605" d="M34.01 118.01c7-.02 13.99-.12 20.99 0 1.88-2.69 10.16 2.91 4.86 3.75-.49.06-1.46.19-1.94.25-6.63.09-13.27-.27-19.89.04-1.91 10.18-1.45 25.05-.35 36.28 16.65 1.51 34.14.57 51.1.18.41.39 1.25 1.16 1.67 1.55-.65 1.09-1.32 2.17-2.01 3.25-18.14-.63-36.29-.19-54.43-.31-.02-15-.01-29.99 0-44.99z"/><path fill="#8d0a09" d="M102.69 121.67c2.46-1.91 5.05-3.86 8.3-4.02.49 1.11.95 2.23 1.4 3.36-.55 2.81-2.05 5.25-4.01 7.3 1.75-5.67-1.29-6.98-5.69-6.64z"/><path fill="#d0a69f" d="M32.05 119.05l.95-.07V162c-2.27-12.4-.5-28.94-.95-42.95z"/><path fill="#cd610c" d="M112.39 121.01c1.42-.36 2.84-.67 4.28-.95 2.4 2.17 5.17 3.86 8.03 5.34 9.62 5.69 19.52 10.9 28.85 17.06.12.55.35 1.66.46 2.22-3.36 4.75-6.13 9.89-9.14 14.86-.89 1.61-1.65 3.3-2.37 4.99-1.38 1.57-2.59 3.29-3.54 5.14-7.13 13-14.78 25.7-22.21 38.53-1.39.87-2.87 1.61-4.44 2.07-12.01-6.52-23.7-13.65-35.55-20.46-.38-1.5-.67-3.01-.94-4.52 3.73-5.92 6.66-12.33 10.56-18.15.67-.95 1.21-1.99 1.68-3.05l.38-.78c.69-1.08 1.36-2.16 2.01-3.25 2.16-3.55 4.53-7.01 5.97-10.93 1.33-2.28 2.56-4.61 3.81-6.93 2.04-3.04 3.99-6.15 5.71-9.38.86-1.48 1.65-3 2.44-4.51 1.96-2.05 3.46-4.49 4.01-7.3m2.81 5.06c-5.84 10.31-11.74 20.58-17.6 30.88-4.75 6.48-7.58 14.31-11.94 21.07-2.82 3.89-7.83 10.23.23 11.19 3.07 3.21 7.91 5.01 11.78 6.7 4.1 4.21 10.2 6.23 15.11 9.01 5.51-9.81 12.82-18.89 16.93-29.36 3.75-5.58 7.49-11.5 10.35-17.57 3.02-3.57 4.53-8.56 7.52-12.35 1.38-1.83-1.29-1.94-2.43-2.45-3.85-2.66-7.79-5.3-12.14-7.06-6.06-2.85-11.35-8.8-17.81-10.06z"/><path fill="#8bac47" d="M124.7 125.4c-.47-1.65-3.42-5.51-.04-5.29 10.48 7.95 22.56 13.51 33.54 20.7 3.92 3.39-3.25 9.54 2.32 11.72 8.66 4.06 15.99 11.59 25.35 13.48-5.11 2.45-9.91 5.5-14.84 8.29-6.63-3.33-12.82-7.48-20.06-9.46.17-6.85 4.99-13.24 3.04-20.16-.11-.56-.34-1.67-.46-2.22-9.33-6.16-19.23-11.37-28.85-17.06z"/><path fill="#c33333" d="M37.68 158.33c-1.1-11.23-1.56-26.1.35-36.28-.03 3.59-.08 7.2-.08 10.8 0 2.73.01 5.46.05 8.19-.03 1.99-.04 3.97-.01 5.96.02 1.74.07 5.21.09 6.94 15.33.76 30.6-1.02 45.92-1.03 5.28 2.13 7.6-4.3 12.42-3.78-1.44 3.92-3.81 7.38-5.97 10.93-.42-.39-1.26-1.16-1.67-1.55-16.96.39-34.45 1.33-51.1-.18z"/><path fill="#e37776" d="M38.03 122.05c6.62-.31 13.26.05 19.89-.04 1.31 3.15 2.17 6.44 2.15 9.9-7.33.53-14.92-.8-22.12.94 0-3.6.05-7.21.08-10.8z"/><path fill="#d66363" d="M57.92 122.01c.48-.06 1.45-.19 1.94-.25 4.81.32 4.82 6.8 7.34 9.91-2.74 2.4-1.05 6.74-3.47 9.25-8.58-.1-17.15-.52-25.73.12-.04-2.73-.05-5.46-.05-8.19 7.2-1.74 14.79-.41 22.12-.94.02-3.46-.84-6.75-2.15-9.9z"/><path fill="#cf6464" d="M87.5 129.83c5.06-2.73 10.2-5.3 15.19-8.16 4.4-.34 7.44.97 5.69 6.64-.79 1.51-1.58 3.03-2.44 4.51-6.09 4.08-11.99 9.15-20.14 7.12 2.6-3.17 3.45-6.31 1.7-10.11z"/><path fill="#faac57" d="M115.2 126.07c6.46 1.26 11.75 7.21 17.81 10.06.21.85.39 1.71.53 2.58-10.65 7.88-23.71 12.6-33.58 21.18-1.53.58-1.56-2.12-2.36-2.94 5.86-10.3 11.76-20.57 17.6-30.88z"/><path fill="#ca5152" d="M73.87 137.98c4.83-2.18 8.94-5.69 13.63-8.15 1.75 3.8.9 6.94-1.7 10.11 8.15 2.03 14.05-3.04 20.14-7.12-1.72 3.23-3.67 6.34-5.71 9.38-6.15 3.52-13.01 5.83-20.22 4.71-13.97-1.65-27.99 1.12-42.02.09-.03-1.99-.02-3.97.01-5.96 8.58-.64 17.15-.22 25.73-.12 2.42-2.51.73-6.85 3.47-9.25 2.11 2.09 2.77 7.38 6.67 6.31z"/><path fill="#f9a144" d="M133.01 136.13c4.35 1.76 8.29 4.4 12.14 7.06.3 4.94-6.38 4.48-9.09 6.96-15.86 8.94-31.1 18.93-46.62 28.41-1.45 1.15-2.88 1.33-3.78-.54 4.36-6.76 7.19-14.59 11.94-21.07.8.82.83 3.52 2.36 2.94 9.87-8.58 22.93-13.3 33.58-21.18-.14-.87-.32-1.73-.53-2.58z"/><path fill="#c94343" d="M80.01 146.91c7.21 1.12 14.07-1.19 20.22-4.71-1.25 2.32-2.48 4.65-3.81 6.93-4.82-.52-7.14 5.91-12.42 3.78-15.32.01-30.59 1.79-45.92 1.03-.02-1.73-.07-5.2-.09-6.94 14.03 1.03 28.05-1.74 42.02-.09z"/><path fill="#f89834" d="M145.15 143.19c1.14.51 3.81.62 2.43 2.45-2.99 3.79-4.5 8.78-7.52 12.35-14.07 9.3-28.75 18.98-43.98 27.02-3.14 1.98-6.19 4.62-10.19 4.2-8.06-.96-3.05-7.3-.23-11.19.9 1.87 2.33 1.69 3.78.54 15.52-9.48 30.76-19.47 46.62-28.41 2.71-2.48 9.39-2.02 9.09-6.96z"/><path fill="#7fa238" d="M144.87 159.54c3.01-4.97 5.78-10.11 9.14-14.86 1.95 6.92-2.87 13.31-3.04 20.16 7.24 1.98 13.43 6.13 20.06 9.46-4.58 2.07-8.6 6.35-13.79 6.64-4.68-6.8-7.57-14.67-12.37-21.4z"/><path fill="#f78e24" d="M96.08 185.01c15.23-8.04 29.91-17.72 43.98-27.02-2.86 6.07-6.6 11.99-10.35 17.57-3.85 1.37-3.55 8.01-8.5 5.78-5.51 6.64-16.39 8.69-23.54 14.57-3.87-1.69-8.71-3.49-11.78-6.7 4 .42 7.05-2.22 10.19-4.2z"/><path fill="#92aa77" d="M195.02 162.26c1.85-.4 1.82 3.88-.04 3.41-.04-1.14-.03-2.28.04-3.41z"/><path fill="#ab2a2f" d="M34.01 163c18.14.12 36.29-.32 54.43.31l-.38.78c-18.03-.18-36.05-.04-54.08-.1l.03-.99z"/><path fill="#d7b5af" d="M33.98 163.99c18.03.06 36.05-.08 54.08.1-.47 1.06-1.01 2.1-1.68 3.05-.18-.48-.55-1.44-.74-1.92-17.19-.61-34.41.06-51.61-.27l-.05-.96z"/><path fill="#c5c2b7" d="M138.96 169.67c.95-1.85 2.16-3.57 3.54-5.14.96 1.67 1.92 3.34 2.84 5.03-1.76 2.98-4.15 1.78-6.38.11z"/><path fill="#f58313" d="M121.21 181.34c4.95 2.23 4.65-4.41 8.5-5.78-4.11 10.47-11.42 19.55-16.93 29.36-4.91-2.78-11.01-4.8-15.11-9.01 7.15-5.88 18.03-7.93 23.54-14.57z"/><path fill="#d7a27e" d="M76.76 189.81c-2.39.93-2.79-4.2-.94-4.52.27 1.51.56 3.02.94 4.52z"/><path fill="#d29c71" d="M112.31 210.27c1.57-.46 3.05-1.2 4.44-2.07 1.27 2.53-3.6 4.22-4.44 2.07z"/></svg>